HIERARCHY
ROOT Hips
{
	OFFSET 0.000000 0.000000 0.000000
	CHANNELS 6 Xposition Yposition Zposition Zrotation Yrotation Xrotation 
	JOINT LHipJoint
	{
		OFFSET 0.000000 0.000000 0.000000
		CHANNELS 3 Zrotation Yrotation Xrotation
		JOINT LeftUpLeg
		{
			OFFSET 1.363060 -1.794630 0.839290
			CHANNELS 3 Zrotation Yrotation Xrotation
			JOINT LeftLeg
			{
				OFFSET 2.448110 -6.726130 0.000000
				CHANNELS 3 Zrotation Yrotation Xrotation
				JOINT LeftFoot
				{
					OFFSET 2.562200 -7.039590 0.000000
					CHANNELS 3 Zrotation Yrotation Xrotation
					JOINT LeftToeBase
					{
						OFFSET 0.157640 -0.433110 2.322550
						CHANNELS 3 Zrotation Yrotation Xrotation
						End Site
						{
							OFFSET 0.000000 0.000000 0.000000
						}
					}
				}
			}
		}
	}
	JOINT RHipJoint
	{
		OFFSET 0.000000 0.000000 0.000000
		CHANNELS 3 Zrotation Yrotation Xrotation
		JOINT RightUpLeg
		{
			OFFSET -1.305520 -1.794630 0.839290
			CHANNELS 3 Zrotation Yrotation Xrotation
			JOINT RightLeg
			{
				OFFSET -2.542530 -6.985550 0.000000
				CHANNELS 3 Zrotation Yrotation Xrotation
				JOINT RightFoot
				{
					OFFSET -2.568260 -7.056230 0.000000
					CHANNELS 3 Zrotation Yrotation Xrotation
					JOINT RightToeBase
					{
						OFFSET -0.164730 -0.452590 2.363150
						CHANNELS 3 Zrotation Yrotation Xrotation
						End Site
						{
							OFFSET 0.000000 0.000000 0.000000
						}
					}
				}
			}
		}
	}
	JOINT LowerBack
	{
		OFFSET 0.000000 0.000000 0.000000
		CHANNELS 3 Zrotation Yrotation Xrotation
		JOINT Spine
		{
			OFFSET 0.028270 2.035590 -0.193380
			CHANNELS 3 Zrotation Yrotation Xrotation
			JOINT Spine1
			{
				OFFSET 0.056720 2.048850 -0.042750
				CHANNELS 3 Zrotation Yrotation Xrotation
				JOINT Neck
				{
					OFFSET 0.000000 0.000000 0.000000
					CHANNELS 3 Zrotation Yrotation Xrotation
					JOINT Neck1
					{
						OFFSET -0.054170 1.746240 0.172020
						CHANNELS 3 Zrotation Yrotation Xrotation
						JOINT Head
						{
							OFFSET 0.104070 1.761360 -0.123970
							CHANNELS 3 Zrotation Yrotation Xrotation
							End Site
							{
								OFFSET 0.000000 0.000000 0.000000
							}
						}
					}
				}
				JOINT LeftShoulder
				{
					OFFSET 0.000000 0.000000 0.000000
					CHANNELS 3 Zrotation Yrotation Xrotation
					JOINT LeftArm
					{
						OFFSET 3.362410 1.200890 -0.311210
						CHANNELS 3 Zrotation Yrotation Xrotation
						JOINT LeftForeArm
						{
							OFFSET 4.983000 -0.000000 -0.000000
							CHANNELS 3 Zrotation Yrotation Xrotation
							JOINT LeftHand
							{
								OFFSET 3.483560 -0.000000 -0.000000
								CHANNELS 3 Zrotation Yrotation Xrotation
								JOINT LeftFingerBase
								{
									OFFSET 0.000000 0.000000 0.000000
									CHANNELS 3 Zrotation Yrotation Xrotation
									JOINT LeftHandIndex1
									{
										OFFSET 0.715260 -0.000000 -0.000000
										CHANNELS 3 Zrotation Yrotation Xrotation
										End Site
										{
											OFFSET 0.000000 0.000000 0.000000
										}
									}
								}
								JOINT LThumb
								{
									OFFSET 0.000000 0.000000 0.000000
									CHANNELS 3 Zrotation Yrotation Xrotation
									End Site
									{
										OFFSET 0.000000 0.000000 0.000000
									}
								}
							}
						}
					}
				}
				JOINT RightShoulder
				{
					OFFSET 0.000000 0.000000 0.000000
					CHANNELS 3 Zrotation Yrotation Xrotation
					JOINT RightArm
					{
						OFFSET -3.136600 1.374050 -0.404650
						CHANNELS 3 Zrotation Yrotation Xrotation
						JOINT RightForeArm
						{
							OFFSET -5.241900 -0.000000 -0.000000
							CHANNELS 3 Zrotation Yrotation Xrotation
							JOINT RightHand
							{
								OFFSET -3.444170 -0.000000 -0.000000
								CHANNELS 3 Zrotation Yrotation Xrotation
								JOINT RightFingerBase
								{
									OFFSET 0.000000 0.000000 0.000000
									CHANNELS 3 Zrotation Yrotation Xrotation
									JOINT RightHandIndex1
									{
										OFFSET -0.622530 -0.000000 -0.000000
										CHANNELS 3 Zrotation Yrotation Xrotation
										End Site
										{
											OFFSET 0.000000 0.000000 0.000000
										}
									}
								}
								JOINT RThumb
								{
									OFFSET 0.000000 0.000000 0.000000
									CHANNELS 3 Zrotation Yrotation Xrotation
									End Site
									{
										OFFSET 0.000000 0.000000 0.000000
									}
								}
							}
						}
					}
				}
			}
		}
	}
}
MOTION
Frames: 9
Frame Time: 0.008333
-0.688586 18.321486 5.407252 -1.780804 -2.131947 2.426638 1.040618 3.625825 3.109772 -12.558692 -10.703066 -5.440786 0.713481 6.735199 22.073687 -1.175122 10.139225 -17.865799 8.143400 -16.223700 -53.077600 -4.134132 -4.109297 1.773860 3.282039 1.774554 -1.504165 -0.022979 0.660801 1.375461 0.280570 -0.764794 5.248374 0.000000 0.000000 0.000000 4.934463 2.355008 -6.220898 -4.845477 2.282411 17.396669 -1.783917 1.578932 -12.493093 -6.894804 -5.828244 -22.944377 10.362438 -8.300663 30.913929 1.908200 -2.701300 9.632100 3.272523 -7.725474 0.590248 -92.647139 8.276755 27.088295 23.496205 -32.392218 -5.822565 0.616826 -0.012287 9.865067 8.186643 -27.262083 -3.503200 -7.125000 0.000000 0.000000 -13.422900 3.013800 13.067800 -2.845767 9.121575 3.029932 96.082044 -12.066239 19.943002 -32.689530 40.038383 -9.199288 0.698121 -3.122665 24.334624 -5.698610 -29.966914 3.549000 7.125000 0.000000 0.000000 24.212900 -55.802100 -6.698800 
-0.687998 18.321388 5.406567 -1.723420 -2.135157 2.412048 1.022635 3.623789 3.112413 -12.610231 -10.710806 -5.399918 0.707422 6.723131 22.038396 -1.182167 10.166051 -17.861110 8.137100 -16.219200 -53.055100 -4.151519 -4.112507 1.771591 3.278851 1.775042 -1.502727 -0.022562 0.661776 1.375823 0.280867 -0.763653 5.248301 0.000000 0.000000 0.000000 4.966011 2.361284 -6.213292 -5.016407 2.296681 17.409847 -1.728901 1.585844 -12.499016 -6.869790 -5.831099 -22.909331 10.378411 -8.314200 30.841322 1.908000 -2.708400 9.613800 3.300269 -7.726449 0.588534 -92.643232 8.266806 27.060992 23.497202 -32.395138 -5.823578 0.616570 -0.015103 9.916145 8.159702 -27.309538 -3.495900 -7.125000 0.000000 0.000000 -13.440100 2.972800 13.095900 -2.834690 9.117838 3.023390 96.106985 -12.051444 19.883939 -32.665395 40.023946 -9.187691 0.697448 -3.123265 24.326611 -5.705784 -29.941243 3.548800 7.125000 0.000000 0.000000 24.188400 -55.779100 -6.677700 
-0.687802 18.321388 5.405196 -1.679437 -2.147112 2.368123 1.013791 3.629828 3.132009 -12.659049 -10.747265 -5.338497 0.702006 6.709639 22.009257 -1.187745 10.200132 -17.897072 8.123900 -16.209700 -53.007900 -4.156063 -4.119629 1.788294 3.274737 1.776235 -1.497198 -0.022453 0.664860 1.376610 0.281756 -0.760774 5.249643 0.000000 0.000000 0.000000 4.948617 2.365098 -6.275851 -5.074021 2.305458 17.611851 -1.691525 1.593140 -12.531964 -6.848254 -5.823683 -22.910506 10.375339 -8.303951 30.746737 1.908200 -2.707300 9.598500 3.329603 -7.717979 0.569998 -92.657527 8.200676 27.077205 23.480143 -32.385947 -5.816235 0.616436 -0.013419 9.883991 8.187325 -27.272168 -3.504700 -7.125000 0.000000 0.000000 -13.422600 3.004900 13.069700 -2.859737 9.106587 3.002687 96.105076 -11.998193 19.863723 -32.643205 40.026461 -9.188566 0.692650 -3.127900 24.330534 -5.757554 -30.055710 3.584900 7.125000 0.000000 0.000000 24.211800 -55.885800 -6.748800 
-0.687802 18.321388 5.404021 -1.661858 -2.152092 2.338207 1.020089 3.635835 3.146130 -12.689517 -10.762636 -5.305342 0.699560 6.700251 21.993300 -1.187172 10.206012 -17.921642 8.122300 -16.208500 -53.002100 -4.146371 -4.124327 1.805120 3.273964 1.776649 -1.493861 -0.022665 0.666462 1.376850 0.282200 -0.759498 5.250759 0.000000 0.000000 0.000000 4.883243 2.355757 -6.351523 -4.994481 2.289567 17.772253 -1.682349 1.591313 -12.547961 -6.842103 -5.812909 -22.955186 10.325846 -8.275534 30.753840 1.902300 -2.700000 9.608000 3.331894 -7.710878 0.556233 -92.678272 8.148406 27.087277 23.465062 -32.373697 -5.808273 0.615402 -0.011306 9.847655 8.189995 -27.206044 -3.499000 -7.125000 0.000000 0.000000 -13.418500 3.067600 13.049700 -2.888801 9.101777 2.992520 96.066428 -11.980620 19.893391 -32.650963 40.041120 -9.198997 0.691741 -3.130367 24.319814 -5.774076 -30.147965 3.603300 7.125000 0.000000 0.000000 24.255900 -55.969400 -6.812400 
-0.687802 18.321291 5.403042 -1.678751 -2.150476 2.328305 1.031749 3.637564 3.143573 -12.682291 -10.738343 -5.303111 0.699856 6.697851 21.988609 -1.186517 10.193425 -17.895319 8.131500 -16.215100 -53.034800 -4.135669 -4.122638 1.806120 3.276271 1.776203 -1.495096 -0.022928 0.665610 1.376530 0.281939 -0.760456 5.250718 0.000000 0.000000 0.000000 4.846349 2.341259 -6.336183 -4.888029 2.267715 17.751156 -1.710517 1.582389 -12.549869 -6.900057 -5.822573 -22.950788 10.365715 -8.287267 30.784576 1.916000 -2.702100 9.615100 3.317424 -7.711569 0.557299 -92.682165 8.149701 27.068930 23.464974 -32.371425 -5.805751 0.613072 -0.010452 9.869777 8.149014 -27.137714 -3.473000 -7.125000 0.000000 0.000000 -13.439300 3.138000 13.053300 -2.891325 9.102937 2.996499 96.037041 -12.000505 19.913823 -32.653913 40.031845 -9.194871 0.690106 -3.127103 24.312042 -5.816628 -30.072592 3.612700 7.125000 0.000000 0.000000 24.167000 -55.910200 -6.749800 
-0.688292 18.320997 5.402454 -1.730417 -2.166035 2.310946 1.041919 3.640366 3.139489 -12.634660 -10.668824 -5.307999 0.702048 6.699515 21.992022 -1.187531 10.180322 -17.849390 8.148100 -16.227100 -53.094300 -4.127941 -4.119153 1.803033 3.278264 1.775976 -1.496617 -0.023153 0.664816 1.376364 0.281720 -0.761256 5.250559 0.000000 0.000000 0.000000 4.864209 2.340178 -6.285766 -4.799832 2.266989 17.704057 -1.767202 1.577449 -12.556268 -6.965304 -5.839698 -22.901073 10.472465 -8.323424 30.754776 1.940500 -2.709200 9.604100 3.305403 -7.713374 0.559162 -92.664714 8.170224 27.062592 23.472542 -32.378601 -5.807712 0.611617 -0.009348 9.921120 8.144700 -27.082375 -3.465500 -7.125000 0.000000 0.000000 -13.439300 3.191100 13.039900 -2.887492 9.103430 2.999756 96.039678 -12.020898 19.914151 -32.661942 40.030050 -9.194664 0.686821 -3.123929 24.308353 -5.881520 -30.004038 3.632400 7.125000 0.000000 0.000000 24.061600 -55.860200 -6.688000 
-0.688292 18.320997 5.401573 -1.751271 -2.170524 2.314340 1.038969 3.640309 3.139160 -12.603666 -10.640880 -5.330300 0.704978 6.704366 22.002696 -1.177248 10.136122 -17.838630 8.141200 -16.222100 -53.069800 -4.131257 -4.118106 1.800345 3.277664 1.776226 -1.496548 -0.023094 0.665043 1.376538 0.281808 -0.760947 5.250514 0.000000 0.000000 0.000000 4.915491 2.342279 -6.279635 -4.833429 2.271166 17.690676 -1.780940 1.574251 -12.556000 -6.945966 -5.840474 -22.930998 10.499514 -8.334930 30.770298 1.941900 -2.708200 9.611300 3.308600 -7.713391 0.561991 -92.633644 8.182781 27.105427 23.497483 -32.403696 -5.817041 0.610678 -0.005108 9.868905 8.144523 -27.001440 -3.457000 -7.125000 0.000000 0.000000 -13.436400 3.266700 13.017700 -2.879408 9.104386 3.003154 96.042464 -12.037978 19.931837 -32.695654 40.055329 -9.209133 0.687826 -3.121802 24.293998 -5.891717 -29.982905 3.634500 7.125000 0.000000 0.000000 24.039100 -55.844500 -6.671800 
-0.687900 18.321780 5.400105 -1.731574 -2.152909 2.339220 1.032830 3.638025 3.140856 -12.613456 -10.689468 -5.358265 0.706826 6.710088 22.017472 -1.172466 10.123518 -17.854552 8.129600 -16.213800 -53.028200 -4.136266 -4.119307 1.801081 3.276333 1.776503 -1.495604 -0.022965 0.665643 1.376730 0.281974 -0.760317 5.250624 0.000000 0.000000 0.000000 4.932737 2.333376 -6.317148 -4.896022 2.258595 17.708169 -1.757106 1.567317 -12.548182 -6.906143 -5.828167 -23.012701 10.475871 -8.319520 30.820093 1.935100 -2.698900 9.632400 3.317641 -7.711177 0.563938 -92.626358 8.167414 27.112697 23.511167 -32.417617 -5.823128 0.610997 -0.002408 9.773027 8.145437 -26.979847 -3.455100 -7.125000 0.000000 0.000000 -13.435300 3.286000 13.011800 -2.875096 9.103854 3.004328 96.012933 -12.028279 19.984154 -32.720261 40.074364 -9.219607 0.691383 -3.120554 24.272324 -5.859316 -29.982650 3.620400 7.125000 0.000000 0.000000 24.070800 -55.840400 -6.678900 
-0.687704 18.322368 5.399126 -1.746112 -2.148800 2.325074 1.043940 3.642815 3.147178 -12.615518 -10.728558 -5.341074 0.707275 6.712052 22.028574 -1.184631 10.174929 -17.866872 8.150700 -16.229000 -53.103700 -4.124317 -4.119952 1.810497 3.277070 1.776676 -1.494256 -0.023264 0.666276 1.376804 0.282136 -0.759914 5.251306 0.000000 0.000000 0.000000 4.898894 2.318478 -6.348453 -4.788134 2.235817 17.785975 -1.782059 1.557381 -12.562979 -6.918803 -5.819271 -23.074483 10.462487 -8.298532 30.856825 1.936700 -2.689100 9.648800 3.310777 -7.704974 0.558562 -92.656655 8.131300 27.039809 23.489118 -32.399467 -5.815860 0.611920 -0.004604 9.773587 8.158126 -27.035000 -3.466700 -7.125000 0.000000 0.000000 -13.430100 3.232700 13.019900 -2.895283 9.099269 2.999936 95.977104 -11.992311 20.026654 -32.713089 40.074001 -9.221548 0.691521 -3.122984 24.244570 -5.854522 -30.070298 3.628600 7.125000 0.000000 0.000000 24.132500 -55.916100 -6.742800 
